<svg xmlns="http://www.w3.org/2000/svg" viewBox="0 0 120 90" width="120" height="90">
  <style>
    .text {
      fill: #24292f;
      font-family: -apple-system, BlinkMacSystemFont, "Segoe UI", Helvetica, Arial, sans-serif;
      font-size: 12px;
      font-weight: 600;
    }
    .icon-fill {
      fill: #4F46E5;
    }
    @media (prefers-color-scheme: dark) {
      .text {
        fill: #c9d1d9;
      }
      .icon-fill {
        fill: #818CF8;
      }
    }
  </style>
  
  <!-- Icon container -->
  <svg x="40" y="8" width="40" height="40" viewBox="0 0 24 24">
    <g class="icon-fill"><title>DeepMind</title><path d="m5.99,1.62a8.54,8.54 0 0 0 -2.54,6.83c0.35,4.4 4.51,7.99 8.28,7.99c3.5,0 4.88,-3.06 4.54,-5.14a4.32,4.32 0 0 0 -0.95,-2.07c0.63,0.34 1.24,0.77 1.81,1.3c1.52,1.41 2.44,3.23 2.58,5.1c0.33,4.13 -2.73,8.37 -7.85,8.37c-1.69,0 -3.48,-0.43 -4.98,-1.14c-4.06,-1.92 -6.88,-6.06 -6.88,-10.86c0,-4.43 2.41,-8.3 5.99,-10.38zm6.15,-1.62c1.69,0 3.48,0.43 4.98,1.14a12,12 0 0 1 6.88,10.86c0,4.43 -2.41,8.3 -5.99,10.38a8.54,8.54 0 0 0 2.54,-6.83c-0.35,-4.4 -4.51,-7.99 -8.28,-7.99c-3.5,0 -4.88,3.06 -4.54,5.14a4.3,4.3 0 0 0 0.96,2.07a8.72,8.72 0 0 1 -1.81,-1.3c-1.52,-1.41 -2.44,-3.23 -2.59,-5.1c-0.33,-4.13 2.73,-8.37 7.85,-8.37z"/></g>
  </svg>
  
  <!-- Label -->
  <text class="text" x="60" y="70" text-anchor="middle">Antigravity</text>
</svg>