<svg xmlns="http://www.w3.org/2000/svg" viewBox="0 0 120 90" width="120" height="90">
  <style>
    .text {
      fill: #24292f;
      font-family: -apple-system, BlinkMacSystemFont, "Segoe UI", Helvetica, Arial, sans-serif;
      font-size: 12px;
      font-weight: 600;
    }
    .icon-fill {
      fill: #000000;
    }
    @media (prefers-color-scheme: dark) {
      .text {
        fill: #c9d1d9;
      }
      .icon-fill {
        fill: #ffffff;
      }
    }
  </style>
  
  <!-- Icon container -->
  <svg x="40" y="8" width="40" height="40" viewBox="0 0 128 128">
    <path fill="#2d3748" d="M66.457.014a6.308 6.308 0 0 0-5.812 3.028l-47.87 78.072a6.379 6.379 0 0 0 .048 6.748l23.568 37.186a6.387 6.387 0 0 0 7.22 2.683l68.012-20.407a6.37 6.37 0 0 0 3.96-8.765l-43.72-94.85A6.298 6.298 0 0 0 66.46.014Zm1.795 23.95a2.348 2.348 0 0 1 2.448 1.433l30.16 69.784a2.39 2.39 0 0 1-1.512 3.241l-46.996 14.024a2.39 2.39 0 0 1-3.024-2.76l16.83-83.812a2.353 2.353 0 0 1 2.099-1.91z"/>
  </svg>
  
  <!-- Label -->
  <text class="text" x="60" y="70" text-anchor="middle">Prisma</text>
</svg>