<?xml version="1.0" encoding="UTF-8"?>
<svg version="1.1" xmlns="http://www.w3.org/2000/svg" width="705" height="397">
<path d="M0 0 C2.84785016 0.03955347 5.65859164 0.14718971 8.5 0.3125 C9.77049194 0.38307617 9.77049194 0.38307617 11.06665039 0.45507812 C32.03697945 1.71903248 32.03697945 1.71903248 40 4 C40 4.66 40 5.32 40 6 C40.61488281 6.04898438 41.22976563 6.09796875 41.86328125 6.1484375 C42.67152344 6.22320312 43.47976563 6.29796875 44.3125 6.375 C45.51326172 6.47941406 45.51326172 6.47941406 46.73828125 6.5859375 C49.9996035 7.18300168 51.87735238 8.89061158 54.3125 11.0625 C57.35594945 13.25661472 59.33986239 13.46622993 63 14 C65.875 15.4375 65.875 15.4375 68 17 C68 17.66 68 18.32 68 19 C72.53986958 20.76117124 76.22215188 21.21791259 81.078125 21.125 C81.73077332 21.11742676 82.38342163 21.10985352 83.05584717 21.10205078 C85.12084619 21.07780688 87.18526037 21.04052293 89.25 21 C91.98435869 20.9468811 94.71844626 20.90692001 97.453125 20.875 C98.66129883 20.85179688 99.86947266 20.82859375 101.11425781 20.8046875 C104 21 104 21 106 23 C108.20250992 23.46006346 108.20250992 23.46006346 110.625 23.625 C111.44226563 23.69976562 112.25953125 23.77453125 113.1015625 23.8515625 C113.72804688 23.90054688 114.35453125 23.94953125 115 24 C115 24.66 115 25.32 115 26 C115.94875 25.814375 116.8975 25.62875 117.875 25.4375 C121 25 121 25 123 26 C123 26.66 123 27.32 123 28 C123.8353125 28.3403125 123.8353125 28.3403125 124.6875 28.6875 C128.63366305 30.92721416 131.36123701 34.14831601 134.0625 37.75 C136.08758661 40.10171348 136.97484531 40.67587628 140 41 C140.103125 41.825 140.20625 42.65 140.3125 43.5 C140.97044637 46.84954517 141.95512187 49.654312 143.28125 52.77734375 C145.21352786 58.75270301 145.14865955 64.96305637 145.14526367 71.1730957 C145.15030159 72.51115768 145.15030159 72.51115768 145.15544128 73.87625122 C145.16489816 76.80944228 145.16689175 79.74257592 145.16796875 82.67578125 C145.17118502 84.72690351 145.17454936 86.77802555 145.17805481 88.82914734 C145.18403294 93.12365246 145.18589607 97.4181375 145.18530273 101.71264648 C145.1852012 107.19658063 145.19885091 112.68038508 145.21607494 118.16428852 C145.22723166 122.39982181 145.22922081 126.63532411 145.22869301 130.87087059 C145.22986768 132.89173009 145.23426047 134.91259052 145.24202538 136.93343544 C145.2518995 139.76862113 145.24891812 142.60352989 145.24291992 145.4387207 C145.24853943 146.26138931 145.25415894 147.08405792 145.25994873 147.93165588 C145.19156108 160.74912777 141.44742818 171.84194393 132.7109375 181.43359375 C128.69279471 185.11230439 124.17814393 188.27395202 119 190 C120.44622186 193.85659162 122.21317497 197.47762994 124.09765625 201.1328125 C125.7016926 204.45198729 126.11516435 207.05366012 126.0625 210.6875 C126.05347656 211.49574219 126.04445313 212.30398437 126.03515625 213.13671875 C126.01775391 214.05904297 126.01775391 214.05904297 126 215 C126.61875 215.268125 127.2375 215.53625 127.875 215.8125 C130 217 130 217 132 220 C132.2318588 222.69843 132.35194206 225.29127705 132.37109375 227.9921875 C132.38012222 228.77514191 132.3891507 229.55809631 132.39845276 230.36477661 C132.41295339 232.02065204 132.42184154 233.67658474 132.42553711 235.33251953 C132.43742654 237.85938665 132.48660206 240.38380511 132.53710938 242.91015625 C132.54657492 244.52082144 132.55380933 246.1315016 132.55859375 247.7421875 C132.57812607 248.49442596 132.59765839 249.24666443 132.61778259 250.021698 C132.58330723 254.05300154 132.1720798 255.78909721 129.59008789 258.95361328 C126.04229305 261.75666883 124.43319229 262.12317927 119.9921875 262.09765625 C119.00605469 262.09443359 118.01992188 262.09121094 117.00390625 262.08789062 C115.97136719 262.07951172 114.93882812 262.07113281 113.875 262.0625 C112.31458984 262.05573242 112.31458984 262.05573242 110.72265625 262.04882812 C108.14838038 262.03701952 105.57421854 262.02055075 103 262 C103.00999275 262.82446625 103.00999275 262.82446625 103.02018738 263.66558838 C103.08710997 269.4417123 103.13203394 275.2177242 103.16479492 280.99414062 C103.17978213 283.14327476 103.20017887 285.29237883 103.22631836 287.44140625 C103.59332105 318.4135551 103.59332105 318.4135551 91.375 331.77734375 C81.77377628 340.84773058 70.21367542 342.17947151 57.625 342.1875 C56.62210938 342.19974609 55.61921875 342.21199219 54.5859375 342.22460938 C42.10607674 342.24911172 31.15439994 338.73829085 22 330 C21.48695313 329.53335937 20.97390625 329.06671875 20.4453125 328.5859375 C11.2157943 319.2645833 11.36928619 305.45872047 11.25 293.1875 C11.22175657 291.70504467 11.19181792 290.22262064 11.16015625 288.74023438 C11.08730027 285.16030305 11.03712686 281.58050163 11 278 C6.34947128 277.73067479 6.34947128 277.73067479 2 279 C1.04793892 281.85618323 0.90488667 283.48247061 0.97265625 286.4296875 C0.9866748 287.30125488 1.00069336 288.17282227 1.01513672 289.07080078 C1.0307666 289.99618652 1.04639648 290.92157227 1.0625 291.875 C1.14784195 307.07879759 0.0320119 319.58978691 -10.625 331.3125 C-23.09971009 342.97155597 -38.11972704 342.68656518 -54.15185547 342.18798828 C-62.37988098 341.64490756 -69.41139698 338.89921763 -76 334 C-76.7425 333.855625 -77.485 333.71125 -78.25 333.5625 C-78.8275 333.376875 -79.405 333.19125 -80 333 C-80.72455635 331.35767228 -81.37774395 329.68375165 -82 328 C-83.26556534 326.1317845 -84.60320397 324.34091044 -85.9765625 322.55078125 C-87 321 -87 321 -87 319 C-87.99 318.67 -88.98 318.34 -90 318 C-89.67 316.02 -89.34 314.04 -89 312 C-89.66 311.67 -90.32 311.34 -91 311 C-91 288.23 -91 265.46 -91 242 C-91.33 242 -91.66 242 -92 242 C-92 238.7 -92 235.4 -92 232 C-91.67 232 -91.34 232 -91 232 C-91.01160156 230.84242188 -91.02320313 229.68484375 -91.03515625 228.4921875 C-91.04454077 226.95312662 -91.05364026 225.41406399 -91.0625 223.875 C-91.07087891 223.11445313 -91.07925781 222.35390625 -91.08789062 221.5703125 C-91.10646509 217.2610356 -90.86117265 213.24483526 -90 209 C-90.9178125 209.49371094 -91.835625 209.98742187 -92.78125 210.49609375 C-105.23479812 217.06105778 -105.23479812 217.06105778 -112 217 C-113.02351563 217.02449219 -114.04703125 217.04898438 -115.1015625 217.07421875 C-132.46719374 217.32449947 -146.25811278 216.49779921 -160 205 C-163 201.48140044 -163 201.48140044 -163 199 C-163.66 199 -164.32 199 -165 199 C-165.65365399 197.46163292 -166.29753603 195.91911234 -166.9375 194.375 C-167.29714844 193.51648438 -167.65679687 192.65796875 -168.02734375 191.7734375 C-169.95837947 186.26727139 -170.1493174 180.82423681 -170.1328125 175.0390625 C-170.13376923 174.289664 -170.13472595 173.5402655 -170.13571167 172.76815796 C-170.13638912 171.18983882 -170.1345653 169.61151683 -170.13037109 168.03320312 C-170.1250318 165.63925799 -170.1303231 163.24550175 -170.13671875 160.8515625 C-170.1360576 159.30989543 -170.13477567 157.76822847 -170.1328125 156.2265625 C-170.13483673 155.52109283 -170.13686096 154.81562317 -170.13894653 154.08877563 C-170.11684808 149.31628717 -169.66672504 144.72666339 -169 140 C-168.01 139.67 -167.02 139.34 -166 139 C-165.86335937 138.36449219 -165.72671875 137.72898438 -165.5859375 137.07421875 C-165 135 -165 135 -163.0390625 133.76953125 C-161.84410156 133.29580078 -161.84410156 133.29580078 -160.625 132.8125 C-159.83351562 132.48894531 -159.04203125 132.16539062 -158.2265625 131.83203125 C-153.19679978 129.95248834 -149.06689633 129.78227251 -143.75 129.75 C-142.49896484 129.7190625 -142.49896484 129.7190625 -141.22265625 129.6875 C-135.69911677 129.65281529 -131.92135681 130.47281677 -127 133 C-127.02320313 131.75605469 -127.04640625 130.51210937 -127.0703125 129.23046875 C-127.37991026 106.06883165 -127.37991026 106.06883165 -122.625 99.9375 C-120 98 -120 98 -117.8125 97 C-115.24035625 95.5808862 -115.02699348 93.67018304 -114 91 C-113.01 90.67 -112.02 90.34 -111 90 C-110.34 89.34 -109.68 88.68 -109 88 C-107.00827818 87.30899447 -105.00838196 86.64097297 -103 86 C-102.67 85.67 -102.34 85.34 -102 85 C-100.31391034 84.92794489 -98.62499341 84.91613932 -96.9375 84.9375 C-95.55884766 84.95103516 -95.55884766 84.95103516 -94.15234375 84.96484375 C-93.08693359 84.98224609 -93.08693359 84.98224609 -92 85 C-91.505 83.515 -91.505 83.515 -91 82 C-90.34 81.67 -89.68 81.34 -89 81 C-88.24094526 78.62202383 -87.59111135 76.2948621 -87 73.875 C-86.66728577 72.55973907 -86.33395467 71.24463402 -86 69.9296875 C-85.83612793 69.27782471 -85.67225586 68.62596191 -85.50341797 67.9543457 C-84.20189733 62.90164311 -82.68565377 57.93655748 -81 53 C-80.34 53 -79.68 53 -79 53 C-78.62875 52.2265625 -78.62875 52.2265625 -78.25 51.4375 C-76.9151597 48.83456141 -75.46545162 46.31118572 -73.984375 43.7890625 C-72.86602981 41.84530487 -72.86602981 41.84530487 -71.8125 39 C-69.47964178 35.13871743 -66.51220492 33.09955181 -62.86328125 30.515625 C-62.24839844 30.01546875 -61.63351562 29.5153125 -61 29 C-61 28.34 -61 27.68 -61 27 C-58.4385343 24.70351351 -57.52032428 24 -54 24 C-54 23.34 -54 22.68 -54 22 C-53.34 22 -52.68 22 -52 22 C-52 20.68 -52 19.36 -52 18 C-50.39967863 17.15930585 -48.79458829 16.32768495 -47.1875 15.5 C-46.29417969 15.0359375 -45.40085937 14.571875 -44.48046875 14.09375 C-42 13 -42 13 -39 13 C-38.67 12.01 -38.34 11.02 -38 10 C-34.625 8.25 -34.625 8.25 -31 7 C-30.01 7.33 -29.02 7.66 -28 8 C-28 7.34 -28 6.68 -28 6 C-21.06169024 4.32966617 -14.08147536 3.1508895 -7.03369141 2.0534668 C-3.19934257 1.75480634 -3.19934257 1.75480634 0 0 Z " fill="#FDFEFD" transform="translate(345,27)"/>
<path d="M0 0 C2.84785016 0.03955347 5.65859164 0.14718971 8.5 0.3125 C9.77049194 0.38307617 9.77049194 0.38307617 11.06665039 0.45507812 C32.03697945 1.71903248 32.03697945 1.71903248 40 4 C40 4.66 40 5.32 40 6 C40.61488281 6.04898438 41.22976563 6.09796875 41.86328125 6.1484375 C42.67152344 6.22320312 43.47976563 6.29796875 44.3125 6.375 C45.51326172 6.47941406 45.51326172 6.47941406 46.73828125 6.5859375 C49.9996035 7.18300168 51.87735238 8.89061158 54.3125 11.0625 C57.35594945 13.25661472 59.33986239 13.46622993 63 14 C65.875 15.4375 65.875 15.4375 68 17 C68 17.66 68 18.32 68 19 C72.53986958 20.76117124 76.22215188 21.21791259 81.078125 21.125 C81.73077332 21.11742676 82.38342163 21.10985352 83.05584717 21.10205078 C85.12084619 21.07780688 87.18526037 21.04052293 89.25 21 C91.98435869 20.9468811 94.71844626 20.90692001 97.453125 20.875 C98.66129883 20.85179688 99.86947266 20.82859375 101.11425781 20.8046875 C104 21 104 21 106 23 C108.20250992 23.46006346 108.20250992 23.46006346 110.625 23.625 C111.44226563 23.69976562 112.25953125 23.77453125 113.1015625 23.8515625 C113.72804688 23.90054688 114.35453125 23.94953125 115 24 C115 24.66 115 25.32 115 26 C115.94875 25.814375 116.8975 25.62875 117.875 25.4375 C121 25 121 25 123 26 C123 26.66 123 27.32 123 28 C123.8353125 28.3403125 123.8353125 28.3403125 124.6875 28.6875 C128.63366305 30.92721416 131.36123701 34.14831601 134.0625 37.75 C136.08758661 40.10171348 136.97484531 40.67587628 140 41 C140.103125 41.825 140.20625 42.65 140.3125 43.5 C140.97044637 46.84954517 141.95512187 49.654312 143.28125 52.77734375 C145.21352786 58.75270301 145.14865955 64.96305637 145.14526367 71.1730957 C145.15030159 72.51115768 145.15030159 72.51115768 145.15544128 73.87625122 C145.16489816 76.80944228 145.16689175 79.74257592 145.16796875 82.67578125 C145.17118502 84.72690351 145.17454936 86.77802555 145.17805481 88.82914734 C145.18403294 93.12365246 145.18589607 97.4181375 145.18530273 101.71264648 C145.1852012 107.19658063 145.19885091 112.68038508 145.21607494 118.16428852 C145.22723166 122.39982181 145.22922081 126.63532411 145.22869301 130.87087059 C145.22986768 132.89173009 145.23426047 134.91259052 145.24202538 136.93343544 C145.2518995 139.76862113 145.24891812 142.60352989 145.24291992 145.4387207 C145.24853943 146.26138931 145.25415894 147.08405792 145.25994873 147.93165588 C145.19156108 160.74912777 141.44742818 171.84194393 132.7109375 181.43359375 C128.69279471 185.11230439 124.17814393 188.27395202 119 190 C120.44622186 193.85659162 122.21317497 197.47762994 124.09765625 201.1328125 C125.7016926 204.45198729 126.11516435 207.05366012 126.0625 210.6875 C126.05347656 211.49574219 126.04445313 212.30398437 126.03515625 213.13671875 C126.01775391 214.05904297 126.01775391 214.05904297 126 215 C126.61875 215.268125 127.2375 215.53625 127.875 215.8125 C130 217 130 217 132 220 C132.2318588 222.69843 132.35194206 225.29127705 132.37109375 227.9921875 C132.38012222 228.77514191 132.3891507 229.55809631 132.39845276 230.36477661 C132.41295339 232.02065204 132.42184154 233.67658474 132.42553711 235.33251953 C132.43742654 237.85938665 132.48660206 240.38380511 132.53710938 242.91015625 C132.54657492 244.52082144 132.55380933 246.1315016 132.55859375 247.7421875 C132.57812607 248.49442596 132.59765839 249.24666443 132.61778259 250.021698 C132.58330723 254.05300154 132.1720798 255.78909721 129.59008789 258.95361328 C126.04229305 261.75666883 124.43319229 262.12317927 119.9921875 262.09765625 C119.00605469 262.09443359 118.01992188 262.09121094 117.00390625 262.08789062 C115.97136719 262.07951172 114.93882812 262.07113281 113.875 262.0625 C112.31458984 262.05573242 112.31458984 262.05573242 110.72265625 262.04882812 C108.14838038 262.03701952 105.57421854 262.02055075 103 262 C103.00999275 262.82446625 103.00999275 262.82446625 103.02018738 263.66558838 C103.08710997 269.4417123 103.13203394 275.2177242 103.16479492 280.99414062 C103.17978213 283.14327476 103.20017887 285.29237883 103.22631836 287.44140625 C103.59332105 318.4135551 103.59332105 318.4135551 91.375 331.77734375 C81.77377628 340.84773058 70.21367542 342.17947151 57.625 342.1875 C56.62210938 342.19974609 55.61921875 342.21199219 54.5859375 342.22460938 C42.10607674 342.24911172 31.15439994 338.73829085 22 330 C21.48695313 329.53335937 20.97390625 329.06671875 20.4453125 328.5859375 C11.2157943 319.2645833 11.36928619 305.45872047 11.25 293.1875 C11.22175657 291.70504467 11.19181792 290.22262064 11.16015625 288.74023438 C11.08730027 285.16030305 11.03712686 281.58050163 11 278 C6.34947128 277.73067479 6.34947128 277.73067479 2 279 C1.04793892 281.85618323 0.90488667 283.48247061 0.97265625 286.4296875 C0.9866748 287.30125488 1.00069336 288.17282227 1.01513672 289.07080078 C1.0307666 289.99618652 1.04639648 290.92157227 1.0625 291.875 C1.14784195 307.07879759 0.0320119 319.58978691 -10.625 331.3125 C-23.09971009 342.97155597 -38.11972704 342.68656518 -54.15185547 342.18798828 C-62.37988098 341.64490756 -69.41139698 338.89921763 -76 334 C-76.7425 333.855625 -77.485 333.71125 -78.25 333.5625 C-78.8275 333.376875 -79.405 333.19125 -80 333 C-80.72455635 331.35767228 -81.37774395 329.68375165 -82 328 C-83.26556534 326.1317845 -84.60320397 324.34091044 -85.9765625 322.55078125 C-87 321 -87 321 -87 319 C-87.99 318.67 -88.98 318.34 -90 318 C-89.67 316.02 -89.34 314.04 -89 312 C-89.66 311.67 -90.32 311.34 -91 311 C-91 288.23 -91 265.46 -91 242 C-91.33 242 -91.66 242 -92 242 C-92 238.7 -92 235.4 -92 232 C-91.67 232 -91.34 232 -91 232 C-91.01160156 230.84242188 -91.02320313 229.68484375 -91.03515625 228.4921875 C-91.04454077 226.95312662 -91.05364026 225.41406399 -91.0625 223.875 C-91.07087891 223.11445313 -91.07925781 222.35390625 -91.08789062 221.5703125 C-91.10646509 217.2610356 -90.86117265 213.24483526 -90 209 C-90.9178125 209.49371094 -91.835625 209.98742187 -92.78125 210.49609375 C-105.23479812 217.06105778 -105.23479812 217.06105778 -112 217 C-113.02351563 217.02449219 -114.04703125 217.04898438 -115.1015625 217.07421875 C-132.46719374 217.32449947 -146.25811278 216.49779921 -160 205 C-163 201.48140044 -163 201.48140044 -163 199 C-163.66 199 -164.32 199 -165 199 C-165.65365399 197.46163292 -166.29753603 195.91911234 -166.9375 194.375 C-167.29714844 193.51648438 -167.65679687 192.65796875 -168.02734375 191.7734375 C-169.95837947 186.26727139 -170.1493174 180.82423681 -170.1328125 175.0390625 C-170.13376923 174.289664 -170.13472595 173.5402655 -170.13571167 172.76815796 C-170.13638912 171.18983882 -170.1345653 169.61151683 -170.13037109 168.03320312 C-170.1250318 165.63925799 -170.1303231 163.24550175 -170.13671875 160.8515625 C-170.1360576 159.30989543 -170.13477567 157.76822847 -170.1328125 156.2265625 C-170.13483673 155.52109283 -170.13686096 154.81562317 -170.13894653 154.08877563 C-170.11684808 149.31628717 -169.66672504 144.72666339 -169 140 C-168.01 139.67 -167.02 139.34 -166 139 C-165.86335937 138.36449219 -165.72671875 137.72898438 -165.5859375 137.07421875 C-165 135 -165 135 -163.0390625 133.76953125 C-161.84410156 133.29580078 -161.84410156 133.29580078 -160.625 132.8125 C-159.83351562 132.48894531 -159.04203125 132.16539062 -158.2265625 131.83203125 C-153.19679978 129.95248834 -149.06689633 129.78227251 -143.75 129.75 C-142.49896484 129.7190625 -142.49896484 129.7190625 -141.22265625 129.6875 C-135.69911677 129.65281529 -131.92135681 130.47281677 -127 133 C-127.02320313 131.75605469 -127.04640625 130.51210937 -127.0703125 129.23046875 C-127.37991026 106.06883165 -127.37991026 106.06883165 -122.625 99.9375 C-120 98 -120 98 -117.8125 97 C-115.24035625 95.5808862 -115.02699348 93.67018304 -114 91 C-113.01 90.67 -112.02 90.34 -111 90 C-110.34 89.34 -109.68 88.68 -109 88 C-107.00827818 87.30899447 -105.00838196 86.64097297 -103 86 C-102.67 85.67 -102.34 85.34 -102 85 C-100.31391034 84.92794489 -98.62499341 84.91613932 -96.9375 84.9375 C-95.55884766 84.95103516 -95.55884766 84.95103516 -94.15234375 84.96484375 C-93.08693359 84.98224609 -93.08693359 84.98224609 -92 85 C-91.505 83.515 -91.505 83.515 -91 82 C-90.34 81.67 -89.68 81.34 -89 81 C-88.24094526 78.62202383 -87.59111135 76.2948621 -87 73.875 C-86.66728577 72.55973907 -86.33395467 71.24463402 -86 69.9296875 C-85.83612793 69.27782471 -85.67225586 68.62596191 -85.50341797 67.9543457 C-84.20189733 62.90164311 -82.68565377 57.93655748 -81 53 C-80.34 53 -79.68 53 -79 53 C-78.62875 52.2265625 -78.62875 52.2265625 -78.25 51.4375 C-76.9151597 48.83456141 -75.46545162 46.31118572 -73.984375 43.7890625 C-72.86602981 41.84530487 -72.86602981 41.84530487 -71.8125 39 C-69.47964178 35.13871743 -66.51220492 33.09955181 -62.86328125 30.515625 C-62.24839844 30.01546875 -61.63351562 29.5153125 -61 29 C-61 28.34 -61 27.68 -61 27 C-58.4385343 24.70351351 -57.52032428 24 -54 24 C-54 23.34 -54 22.68 -54 22 C-53.34 22 -52.68 22 -52 22 C-52 20.68 -52 19.36 -52 18 C-50.39967863 17.15930585 -48.79458829 16.32768495 -47.1875 15.5 C-46.29417969 15.0359375 -45.40085937 14.571875 -44.48046875 14.09375 C-42 13 -42 13 -39 13 C-38.67 12.01 -38.34 11.02 -38 10 C-34.625 8.25 -34.625 8.25 -31 7 C-30.01 7.33 -29.02 7.66 -28 8 C-28 7.34 -28 6.68 -28 6 C-21.06169024 4.32966617 -14.08147536 3.1508895 -7.03369141 2.0534668 C-3.19934257 1.75480634 -3.19934257 1.75480634 0 0 Z M-52.6875 44.6875 C-53.82676768 46.09734376 -54.92590102 47.5398967 -56 49 C-56.39316406 49.53254395 -56.78632813 50.06508789 -57.19140625 50.61376953 C-63.05689216 58.66568097 -67.61371007 66.2149487 -70 76 C-70.29519531 77.13308594 -70.59039062 78.26617187 -70.89453125 79.43359375 C-72.72368401 87.05923975 -73.38712185 94.17153588 -73 102 C-73.59949463 101.98428955 -74.19898926 101.9685791 -74.81665039 101.95239258 C-77.56516877 101.8895587 -80.31353542 101.85085765 -83.0625 101.8125 C-84.00544922 101.78736328 -84.94839844 101.76222656 -85.91992188 101.73632812 C-91.78663856 101.67500356 -95.79699185 102.25684697 -101 105 C-101.99 105.495 -101.99 105.495 -103 106 C-103 106.66 -103 107.32 -103 108 C-103.99 108.33 -104.98 108.66 -106 109 C-107.64820195 111.60242414 -108 112.86248779 -108 116 C-108.66 116 -109.32 116 -110 116 C-110.00586624 116.72805344 -110.01173248 117.45610687 -110.01777649 118.20622253 C-110.07575084 125.07730558 -110.14785476 131.9481118 -110.23571491 138.81887341 C-110.28038664 142.35098666 -110.31964938 145.88298544 -110.34643555 149.4152832 C-110.3774908 153.47897322 -110.43227834 157.54204542 -110.48828125 161.60546875 C-110.49467117 162.8702153 -110.5010611 164.13496185 -110.50764465 165.43803406 C-110.52743881 166.61888077 -110.54723297 167.79972748 -110.56762695 169.01635742 C-110.57873001 170.05338303 -110.58983307 171.09040863 -110.60127258 172.15885925 C-111.06340306 175.45177988 -112.02510823 177.34258874 -114 180 C-118.68105638 182.2860973 -122.90380284 182.56624413 -128 182 C-131.31599588 179.40487279 -133.42164234 176.87815162 -135 173 C-135.31884766 170.25097656 -135.31884766 170.25097656 -135.4140625 167.140625 C-135.45273438 166.02558594 -135.49140625 164.91054687 -135.53125 163.76171875 C-135.5621875 162.60285156 -135.593125 161.44398438 -135.625 160.25 C-135.66367188 159.07566406 -135.70234375 157.90132812 -135.7421875 156.69140625 C-135.8363982 153.79442732 -135.92201602 150.89745374 -136 148 C-138.72542267 146.63728867 -140.96087274 146.83076399 -144 146.8125 C-145.60875 146.79123047 -145.60875 146.79123047 -147.25 146.76953125 C-150.14453096 146.71414214 -150.14453096 146.71414214 -152 149 C-152.22446756 151.55968471 -152.32812708 154.0079638 -152.3359375 156.5703125 C-152.3425943 157.32537079 -152.3492511 158.08042908 -152.35610962 158.85836792 C-152.36624711 160.46056685 -152.3709263 162.06280809 -152.37060547 163.66503906 C-152.37494664 166.09513101 -152.41116098 168.52335856 -152.44921875 170.953125 C-152.61421084 182.09251076 -152.61421084 182.09251076 -148 192 C-146.07648216 194.07786038 -146.07648216 194.07786038 -143.9375 195.4375 C-143.26589844 195.91058594 -142.59429687 196.38367188 -141.90234375 196.87109375 C-136.30255633 200.19417089 -129.61009255 199.26471857 -123.3125 199.3125 C-122.05759766 199.34150391 -120.80269531 199.37050781 -119.50976562 199.40039062 C-110.95637205 199.45894466 -105.21219416 198.69921683 -98.72265625 193 C-97.90087891 192.01 -97.90087891 192.01 -97.0625 191 C-96.49660156 190.34 -95.93070313 189.68 -95.34765625 189 C-92.908573 185.38025905 -92.8690274 181.84379209 -92.82641602 177.56054688 C-92.81292618 176.47261841 -92.79943634 175.38468994 -92.78553772 174.26379395 C-92.77509933 173.09392944 -92.76466095 171.92406494 -92.75390625 170.71875 C-92.72097951 168.24348589 -92.68776767 165.76822556 -92.65429688 163.29296875 C-92.60680583 159.38886006 -92.56234724 155.48476797 -92.52319336 151.58056641 C-92.48354746 147.81396859 -92.43199731 144.04767889 -92.37890625 140.28125 C-92.3704921 139.1113855 -92.36207794 137.941521 -92.35340881 136.73620605 C-92.33676682 135.64827759 -92.32012482 134.56034912 -92.30297852 133.43945312 C-92.29267105 132.4833313 -92.28236359 131.52720947 -92.27174377 130.54211426 C-91.98401927 127.85050312 -91.47743322 126.25684615 -90 124 C-86.36280395 121.57520264 -84.14296518 121.61337423 -79.8125 121.375 C-77.90404297 121.26285156 -77.90404297 121.26285156 -75.95703125 121.1484375 C-74.98121094 121.09945312 -74.00539063 121.05046875 -73 121 C-73.00829614 122.4486389 -73.00829614 122.4486389 -73.01675987 123.92654324 C-73.15002517 147.43804928 -73.24858661 170.94950628 -73.31087303 194.46131039 C-73.34179584 205.8315213 -73.38394654 217.20148255 -73.45263672 228.5715332 C-73.51248661 238.48301553 -73.55116059 248.39431701 -73.56453097 258.30597502 C-73.57234521 263.55301113 -73.59067796 268.79952994 -73.63438034 274.04640007 C-73.67520948 278.98851142 -73.68764817 283.92989406 -73.67864609 288.87215805 C-73.68029212 290.68254498 -73.6921657 292.49295714 -73.71523285 294.30319786 C-74.02055678 306.63441242 -74.02055678 306.63441242 -68.59983253 317.43297672 C-61.79926481 324.09407887 -55.35185811 324.1821079 -46.25 324.1875 C-45.1775 324.19974609 -44.105 324.21199219 -43 324.22460938 C-35.2608937 324.23890575 -28.34138797 324.14702885 -22.34106445 318.56982422 C-15.80557034 310.91950069 -16.45905913 301.43039482 -16.5 291.9375 C-16.58303679 272.63581649 -16.58303679 272.63581649 -9.96484375 265.94140625 C-8.96130859 265.25884766 -8.96130859 265.25884766 -7.9375 264.5625 C-7.26589844 264.08941406 -6.59429687 263.61632812 -5.90234375 263.12890625 C-0.23086167 259.76328341 6.64369175 260.49966975 13 261 C20.13283857 262.93227051 23.93727004 267.52097434 27.61572266 273.72509766 C29.23815071 277.56341333 29.3539718 280.36575951 29.3359375 284.5234375 C29.34845078 285.97135864 29.36148794 287.41927533 29.375 288.8671875 C29.37892069 291.12060528 29.37500925 293.37357794 29.36035156 295.62695312 C29.16894099 307.72240694 29.16894099 307.72240694 35 318 C35.99 319.175625 35.99 319.175625 37 320.375 C42.84302 325.12245375 49.67042333 324.36707756 56.8125 324.375 C57.96298828 324.39949219 59.11347656 324.42398437 60.29882812 324.44921875 C67.79695089 324.47500026 73.74488051 323.96151765 79.47900391 318.62304688 C85.88618857 311.42522829 86.43132144 305.18548045 86.35644531 295.9519043 C86.35951187 294.13883537 86.35951187 294.13883537 86.36264038 292.28913879 C86.36512712 288.98766401 86.35428079 285.68675661 86.33711338 282.38536048 C86.32204142 278.9291816 86.32325067 275.47300617 86.32244873 272.01679993 C86.31876212 266.21907205 86.30382029 260.421463 86.28125 254.6237793 C86.25230727 247.17384963 86.24201951 239.72401524 86.2375679 232.27403545 C86.23359442 225.87227275 86.22109731 219.47053087 86.20722103 213.06878304 C86.20311773 211.00806682 86.20019447 208.94735133 86.19742584 206.88663292 C86.19164047 203.05809937 86.1769736 199.22962883 86.16113281 195.40112305 C86.15945602 193.681418 86.15945602 193.681418 86.15774536 191.92697144 C86.15203522 190.89091263 86.14632507 189.85485382 86.14044189 188.78739929 C86.1359799 187.42884339 86.1359799 187.42884339 86.13142776 186.04284191 C86.22611616 184.00603299 86.22611616 184.00603299 85 183 C83.54110013 182.91523269 82.0785454 182.89180644 80.6171875 182.89453125 C64.28842825 182.70722527 51.43109946 180.49624035 39 169 C38.36578125 168.44441406 37.7315625 167.88882813 37.078125 167.31640625 C30.38692639 161.12561779 26.90257607 153.50692106 24 145 C23.62875 144.071875 23.2575 143.14375 22.875 142.1875 C21.59409849 137.5213588 21.32560994 132.81559963 21 128 C23.64 128 26.28 128 29 128 C28.938125 129.27875 28.87625 130.5575 28.8125 131.875 C28.86711017 143.52516873 34.38475062 154.5321852 42.3125 162.875 C54.76829329 174.5198151 68.91956685 175.54054907 85.22485352 175.50097656 C88.06042996 175.50000071 90.89332562 175.5418024 93.72851562 175.5859375 C103.87044475 175.6527227 112.60236605 175.69270947 120.58203125 168.59228516 C126.44941671 162.24088267 127.44568136 155.65859807 127.38818359 147.42797852 C127.39344055 146.49371033 127.39869751 145.55944214 127.40411377 144.59686279 C127.41726282 141.52403798 127.40859291 138.45173588 127.3984375 135.37890625 C127.40045987 133.23331097 127.40337266 131.08771635 127.40713501 128.94212341 C127.41155162 124.45085082 127.40514919 119.95975756 127.39111328 115.46850586 C127.37403229 109.72420993 127.38386012 103.98033488 127.40183067 98.23605442 C127.41269517 93.80670528 127.40920974 89.37745515 127.4014473 84.94810295 C127.39945213 82.8306975 127.40188045 80.71328294 127.40888596 78.59588814 C127.41654309 75.63082356 127.40483596 72.66643083 127.38818359 69.70141602 C127.39729263 68.40052284 127.39729263 68.40052284 127.40658569 67.073349 C127.33996514 60.63883461 126.25386443 55.15206287 122.421875 49.79296875 C115.24890559 42.904907 108.21668708 40.84772436 98.30859375 40.796875 C97.44871353 40.79117493 96.58883331 40.78547485 95.70289612 40.77960205 C93.87966134 40.77015337 92.05640949 40.76361859 90.2331543 40.75976562 C87.47217987 40.75012114 84.71196967 40.71912256 81.95117188 40.6875 C65.87575802 40.58922937 53.78772737 43.33259915 41.5234375 54.4453125 C33.25191996 62.8865022 28.91176575 74.3158434 28.875 86.0625 C28.91625 87.361875 28.9575 88.66125 29 90 C26.36 90 23.72 90 21 90 C21.32182795 74.28894446 26.56101416 59.93654891 37.1875 48.25 C43.02984054 42.75210584 50.52968575 38.80478832 58 36 C48.68638719 25.02324205 33.87590253 20.50123516 20 19 C-8.25145414 17.55391117 -32.83448735 23.35360994 -52.6875 44.6875 Z " fill="#F5F6F4" transform="translate(345,27)"/>
<path d="M0 0 C0.91007813 0.30035156 1.82015625 0.60070313 2.7578125 0.91015625 C10.83792979 3.83571596 18.99147893 8.02068155 25.1171875 14.07983398 C29.29985027 17.68057147 32.71907534 17.82212644 38.08203125 17.69921875 C38.93625168 17.70581009 39.79047211 17.71240143 40.670578 17.7191925 C43.38535849 17.73658214 46.0978312 17.71479403 48.8125 17.6875 C77.73034626 17.56585507 77.73034626 17.56585507 89 28 C91.39137482 31.16708938 93.29628239 34.41989069 95 38 C95.52080139 39.01416237 95.52080139 39.01416237 96.05212402 40.04881287 C97.4042047 44.25848078 97.3114351 48.25200121 97.32226562 52.64868164 C97.33219543 53.61524689 97.34212524 54.58181213 97.35235596 55.57766724 C97.38153577 58.77185942 97.39519499 61.96585272 97.40625 65.16015625 C97.41776148 67.3887075 97.42927684 69.61725873 97.4407959 71.84580994 C97.46180014 76.52050699 97.47349464 81.19513545 97.48046875 85.86987305 C97.49141214 91.83604742 97.53941592 97.8013029 97.59641266 103.76718998 C97.63382252 108.37341379 97.64408504 112.97942017 97.6471405 117.585783 C97.65316317 119.78366537 97.66911696 121.98154529 97.69551086 124.17927742 C97.85480667 138.46764485 97.45852715 148.79051966 87.6875 160 C80.20549656 166.78677304 71.43179223 168.15501691 61.625 168.0625 C60.37976563 168.05347656 59.13453125 168.04445312 57.8515625 168.03515625 C56.44003906 168.01775391 56.44003906 168.01775391 55 168 C55.1471314 169.96337242 55.1471314 169.96337242 56 172 C58.0438816 173.1110432 58.0438816 173.1110432 60.5625 173.8125 C68.78264875 176.85395504 74.40582302 181.91633435 78.11328125 189.91015625 C79.44851101 194.56287318 79.61142566 199.19756246 79.63647461 204.02294922 C79.6967871 208.66113978 80.52040633 211.14871622 83 215 C83.52572352 221.80011949 81.15332729 228.63481871 79 235 C76.1875 235.6875 76.1875 235.6875 73 236 C68.56564126 232.77204768 68.00347824 227.07841354 67 222 C66.60971391 218.92882018 66.24084171 216.0187003 67 213 C67.98419922 212.12214844 67.98419922 212.12214844 68.98828125 211.2265625 C71.77838577 208.13848566 71.68863664 205.28425633 71.625 201.3125 C71.6151709 200.59860107 71.6053418 199.88470215 71.59521484 199.14916992 C71.31204619 192.75754521 69.73474178 188.45718795 65 184 C62.4714578 182.49587979 62.4714578 182.49587979 59.7734375 181.26171875 C58.87802246 180.83205811 57.98260742 180.40239746 57.06005859 179.9597168 C56.38023926 179.64301025 55.70041992 179.32630371 55 179 C55.00691345 179.89065312 55.00691345 179.89065312 55.01396656 180.79929924 C55.12463791 195.28163416 55.20724955 209.7639312 55.25906086 224.24659538 C55.28478585 231.25048942 55.31982594 238.25410028 55.37719727 245.2578125 C55.43256795 252.02054642 55.46144725 258.78298637 55.47438622 265.54593277 C55.48360363 268.12226101 55.5016031 270.69857371 55.52865028 273.27477646 C55.56510351 276.89170446 55.56993825 280.5074287 55.56762695 284.12451172 C55.59459152 285.71163719 55.59459152 285.71163719 55.62210083 287.33082581 C55.56408589 295.75625301 53.25734814 302.26476099 47.68359375 308.65625 C46.94238281 309.2646875 46.20117188 309.873125 45.4375 310.5 C44.69371094 311.1290625 43.94992187 311.758125 43.18359375 312.40625 C35.82084862 317.78013196 27.47053269 317.23541077 18.6875 317.3125 C17.59759766 317.34150391 16.50769531 317.37050781 15.38476562 317.40039062 C5.69042441 317.47617321 -1.31698897 315.16255177 -8.5 308.578125 C-10.70993466 306.25308958 -12.37980481 303.76033255 -14 301 C-14.35916504 300.43780762 -14.71833008 299.87561523 -15.08837891 299.29638672 C-16.38611529 296.02737001 -16.27834204 292.84715295 -16.2734375 289.3828125 C-16.29372846 287.87369053 -16.31457928 286.364576 -16.3359375 284.85546875 C-16.35850776 282.49000753 -16.37500039 280.12484122 -16.38085938 277.75927734 C-16.39042221 275.46658781 -16.42424089 273.17520649 -16.4609375 270.8828125 C-16.45336929 269.83252365 -16.45336929 269.83252365 -16.44564819 268.76101685 C-16.54567842 263.72798475 -17.88490754 260.90203263 -21 257 C-24.96063001 253.39942726 -29.21495659 253.49669118 -34.33984375 253.6484375 C-38.11614589 254.14750827 -40.22190131 255.43025871 -43 258 C-45.97769522 262.03362183 -46.36811378 264.94969583 -46.37109375 269.91796875 C-46.38849078 271.26888255 -46.40607498 272.61979396 -46.42382812 273.97070312 C-46.43383735 276.07239559 -46.43751111 278.17391961 -46.43579102 280.27563477 C-46.45344507 290.25488248 -47.09296324 299.06699843 -53.25 307.3125 C-62.39798129 316.25257263 -72.08329173 317.36031883 -84.4375 317.375 C-85.51837891 317.39949219 -86.59925781 317.42398437 -87.71289062 317.44921875 C-97.14013452 317.48352043 -104.39829471 315.19126389 -111.4296875 308.78125 C-116.93085253 302.5411225 -119.15451395 295.94818426 -119.12025452 287.76777649 C-119.12110894 287.02609024 -119.12196337 286.28440399 -119.12284368 285.52024239 C-119.12449438 283.02820039 -119.11898379 280.53622529 -119.11352539 278.04418945 C-119.1132434 276.26051841 -119.11340148 274.47684725 -119.1139679 272.69317627 C-119.11425542 267.84432488 -119.10836585 262.99549811 -119.10139394 258.14665246 C-119.09515302 253.08175293 -119.09455601 248.01685286 -119.09336853 242.95195007 C-119.0902574 233.35785898 -119.08204693 223.76377925 -119.07201904 214.16969317 C-119.06085115 203.24843027 -119.05534575 192.32716683 -119.05032361 181.40589964 C-119.03986415 158.93726012 -119.02226891 136.4686307 -119 114 C-120.485 114.495 -120.485 114.495 -122 115 C-122.00364563 115.65653061 -122.00729126 116.31306122 -122.01104736 116.98948669 C-122.05301299 123.85231316 -122.12245721 130.7144796 -122.20751953 137.5769043 C-122.2356618 140.13445418 -122.25690969 142.69208994 -122.27099609 145.24975586 C-122.29251813 148.93648027 -122.33921935 152.62217934 -122.390625 156.30859375 C-122.39185364 157.44332626 -122.39308228 158.57805878 -122.39434814 159.74717712 C-122.5696142 169.35051258 -125.28012491 177.890053 -132 185 C-140.81113215 191.87742613 -149.38374786 192.36412287 -160.25 192.375 C-161.52230469 192.39949219 -162.79460937 192.42398438 -164.10546875 192.44921875 C-173.47970333 192.47824115 -180.44442434 191.06625285 -188.25 185.8125 C-198.21291494 175.62315517 -198.25702409 166.23575633 -198.35009766 152.66210938 C-198.36670046 150.88723681 -198.39404722 149.11243227 -198.43212891 147.33789062 C-198.48692894 144.76657788 -198.50876778 142.19681809 -198.5234375 139.625 C-198.55744156 138.44043213 -198.55744156 138.44043213 -198.59213257 137.23193359 C-198.57564592 132.92652877 -198.39159755 131.4718677 -195.52978516 128.0234375 C-194.69495605 127.35570312 -193.86012695 126.68796875 -193 126 C-192.67 125.67 -192.34 125.34 -192 125 C-188.75931121 124.69327684 -185.5034183 124.7215791 -182.25 124.6875 C-181.3425 124.65849609 -180.435 124.62949219 -179.5 124.59960938 C-175.19480189 124.5586974 -172.68677078 124.59124937 -168.921875 126.83203125 C-165.88059182 130.26274703 -165.85091631 133.23852082 -165.71875 137.65625 C-165.66267578 139.31333984 -165.66267578 139.31333984 -165.60546875 141.00390625 C-165.53515625 143.33463542 -165.46484375 145.66536458 -165.39453125 147.99609375 C-165.33845703 149.65318359 -165.33845703 149.65318359 -165.28125 151.34375 C-165.25095703 152.35630859 -165.22066406 153.36886719 -165.18945312 154.41210938 C-165.09827803 157.11536317 -165.09827803 157.11536317 -164 160 C-160.535 159.01 -160.535 159.01 -157 158 C-156.99413376 157.30144394 -156.98826752 156.60288788 -156.98222351 155.88316345 C-156.92415296 149.27757958 -156.85199499 142.67231419 -156.76428509 136.06705379 C-156.71968929 132.67176151 -156.68041026 129.27658622 -156.65356445 125.88110352 C-156.62241318 121.97126014 -156.56762824 118.06191449 -156.51171875 114.15234375 C-156.50532883 112.94166733 -156.4989389 111.73099091 -156.49235535 110.48362732 C-156.32026037 100.5665176 -154.07505037 93.23617988 -147 86 C-139.95653868 81.00141455 -134.97397073 78.84676411 -126.375 78.9375 C-125.17230469 78.94426758 -125.17230469 78.94426758 -123.9453125 78.95117188 C-121.96350994 78.96296832 -119.98174567 78.98090395 -118 79 C-118.103125 77.72125 -118.20625 76.4425 -118.3125 75.125 C-118.26331934 57.76422795 -109.31234815 38.74264505 -98 26 C-97.34 26 -96.68 26 -96 26 C-95.79761719 25.45859375 -95.59523438 24.9171875 -95.38671875 24.359375 C-86.35235362 8.98822982 -65.24870539 1.27307941 -49 -3 C-33.50873278 -6.59095888 -14.9473389 -5.2809058 0 0 Z M-90.6875 29.6875 C-91.82676768 31.09734376 -92.92590102 32.5398967 -94 34 C-94.39316406 34.53254395 -94.78632813 35.06508789 -95.19140625 35.61376953 C-101.05689216 43.66568097 -105.61371007 51.2149487 -108 61 C-108.29519531 62.13308594 -108.59039062 63.26617187 -108.89453125 64.43359375 C-110.72368401 72.05923975 -111.38712185 79.17153588 -111 87 C-111.59949463 86.98428955 -112.19898926 86.9685791 -112.81665039 86.95239258 C-115.56516877 86.8895587 -118.31353542 86.85085765 -121.0625 86.8125 C-122.00544922 86.78736328 -122.94839844 86.76222656 -123.91992188 86.73632812 C-129.78663856 86.67500356 -133.79699185 87.25684697 -139 90 C-139.99 90.495 -139.99 90.495 -141 91 C-141 91.66 -141 92.32 -141 93 C-141.99 93.33 -142.98 93.66 -144 94 C-145.64820195 96.60242414 -146 97.86248779 -146 101 C-146.66 101 -147.32 101 -148 101 C-148.00586624 101.72805344 -148.01173248 102.45610687 -148.01777649 103.20622253 C-148.07575084 110.07730558 -148.14785476 116.9481118 -148.23571491 123.81887341 C-148.28038664 127.35098666 -148.31964938 130.88298544 -148.34643555 134.4152832 C-148.3774908 138.47897322 -148.43227834 142.54204542 -148.48828125 146.60546875 C-148.49467117 147.8702153 -148.5010611 149.13496185 -148.50764465 150.43803406 C-148.52743881 151.61888077 -148.54723297 152.79972748 -148.56762695 154.01635742 C-148.57873001 155.05338303 -148.58983307 156.09040863 -148.60127258 157.15885925 C-149.06340306 160.45177988 -150.02510823 162.34258874 -152 165 C-156.68105638 167.2860973 -160.90380284 167.56624413 -166 167 C-169.31599588 164.40487279 -171.42164234 161.87815162 -173 158 C-173.31884766 155.25097656 -173.31884766 155.25097656 -173.4140625 152.140625 C-173.45273438 151.02558594 -173.49140625 149.91054687 -173.53125 148.76171875 C-173.5621875 147.60285156 -173.593125 146.44398438 -173.625 145.25 C-173.66367188 144.07566406 -173.70234375 142.90132812 -173.7421875 141.69140625 C-173.8363982 138.79442732 -173.92201602 135.89745374 -174 133 C-176.72542267 131.63728867 -178.96087274 131.83076399 -182 131.8125 C-183.60875 131.79123047 -183.60875 131.79123047 -185.25 131.76953125 C-188.14453096 131.71414214 -188.14453096 131.71414214 -190 134 C-190.22446756 136.55968471 -190.32812708 139.0079638 -190.3359375 141.5703125 C-190.3425943 142.32537079 -190.3492511 143.08042908 -190.35610962 143.85836792 C-190.36624711 145.46056685 -190.3709263 147.06280809 -190.37060547 148.66503906 C-190.37494664 151.09513101 -190.41116098 153.52335856 -190.44921875 155.953125 C-190.61421084 167.09251076 -190.61421084 167.09251076 -186 177 C-184.07648216 179.07786038 -184.07648216 179.07786038 -181.9375 180.4375 C-181.26589844 180.91058594 -180.59429687 181.38367188 -179.90234375 181.87109375 C-174.30255633 185.19417089 -167.61009255 184.26471857 -161.3125 184.3125 C-160.05759766 184.34150391 -158.80269531 184.37050781 -157.50976562 184.40039062 C-148.95637205 184.45894466 -143.21219416 183.69921683 -136.72265625 178 C-135.90087891 177.01 -135.90087891 177.01 -135.0625 176 C-134.49660156 175.34 -133.93070313 174.68 -133.34765625 174 C-130.908573 170.38025905 -130.8690274 166.84379209 -130.82641602 162.56054688 C-130.81292618 161.47261841 -130.79943634 160.38468994 -130.78553772 159.26379395 C-130.77509933 158.09392944 -130.76466095 156.92406494 -130.75390625 155.71875 C-130.72097951 153.24348589 -130.68776767 150.76822556 -130.65429688 148.29296875 C-130.60680583 144.38886006 -130.56234724 140.48476797 -130.52319336 136.58056641 C-130.48354746 132.81396859 -130.43199731 129.04767889 -130.37890625 125.28125 C-130.3704921 124.1113855 -130.36207794 122.941521 -130.35340881 121.73620605 C-130.33676682 120.64827759 -130.32012482 119.56034912 -130.30297852 118.43945312 C-130.29267105 117.4833313 -130.28236359 116.52720947 -130.27174377 115.54211426 C-129.98401927 112.85050312 -129.47743322 111.25684615 -128 109 C-124.36280395 106.57520264 -122.14296518 106.61337423 -117.8125 106.375 C-115.90404297 106.26285156 -115.90404297 106.26285156 -113.95703125 106.1484375 C-112.98121094 106.09945312 -112.00539063 106.05046875 -111 106 C-111.00829614 107.4486389 -111.00829614 107.4486389 -111.01675987 108.92654324 C-111.15002517 132.43804928 -111.24858661 155.94950628 -111.31087303 179.46131039 C-111.34179584 190.8315213 -111.38394654 202.20148255 -111.45263672 213.5715332 C-111.51248661 223.48301553 -111.55116059 233.39431701 -111.56453097 243.30597502 C-111.57234521 248.55301113 -111.59067796 253.79952994 -111.63438034 259.04640007 C-111.67520948 263.98851142 -111.68764817 268.92989406 -111.67864609 273.87215805 C-111.68029212 275.68254498 -111.6921657 277.49295714 -111.71523285 279.30319786 C-112.02055678 291.63441242 -112.02055678 291.63441242 -106.59983253 302.43297672 C-99.79926481 309.09407887 -93.35185811 309.1821079 -84.25 309.1875 C-83.1775 309.19974609 -82.105 309.21199219 -81 309.22460938 C-73.2608937 309.23890575 -66.34138797 309.14702885 -60.34106445 303.56982422 C-53.80557034 295.91950069 -54.45905913 286.43039482 -54.5 276.9375 C-54.58303679 257.63581649 -54.58303679 257.63581649 -47.96484375 250.94140625 C-46.96130859 250.25884766 -46.96130859 250.25884766 -45.9375 249.5625 C-45.26589844 249.08941406 -44.59429687 248.61632812 -43.90234375 248.12890625 C-38.23086167 244.76328341 -31.35630825 245.49966975 -25 246 C-17.86716143 247.93227051 -14.06272996 252.52097434 -10.38427734 258.72509766 C-8.76184929 262.56341333 -8.6460282 265.36575951 -8.6640625 269.5234375 C-8.65154922 270.97135864 -8.63851206 272.41927533 -8.625 273.8671875 C-8.62107931 276.12060528 -8.62499075 278.37357794 -8.63964844 280.62695312 C-8.83105901 292.72240694 -8.83105901 292.72240694 -3 303 C-2.01 304.175625 -2.01 304.175625 -1 305.375 C4.84302 310.12245375 11.67042333 309.36707756 18.8125 309.375 C19.96298828 309.39949219 21.11347656 309.42398437 22.29882812 309.44921875 C29.79695089 309.47500026 35.74488051 308.96151765 41.47900391 303.62304688 C47.88618857 296.42522829 48.43132144 290.18548045 48.35644531 280.9519043 C48.35951187 279.13883537 48.35951187 279.13883537 48.36264038 277.28913879 C48.36512712 273.98766401 48.35428079 270.68675661 48.33711338 267.38536048 C48.32204142 263.9291816 48.32325067 260.47300617 48.32244873 257.01679993 C48.31876212 251.21907205 48.30382029 245.421463 48.28125 239.6237793 C48.25230727 232.17384963 48.24201951 224.72401524 48.2375679 217.27403545 C48.23359442 210.87227275 48.22109731 204.47053087 48.20722103 198.06878304 C48.20311773 196.00806682 48.20019447 193.94735133 48.19742584 191.88663292 C48.19164047 188.05809937 48.1769736 184.22962883 48.16113281 180.40112305 C48.15945602 178.681418 48.15945602 178.681418 48.15774536 176.92697144 C48.15203522 175.89091263 48.14632507 174.85485382 48.14044189 173.78739929 C48.1359799 172.42884339 48.1359799 172.42884339 48.13142776 171.04284191 C48.22611616 169.00603299 48.22611616 169.00603299 47 168 C45.54110013 167.91523269 44.0785454 167.89180644 42.6171875 167.89453125 C26.28842825 167.70722527 13.43109946 165.49624035 1 154 C0.36578125 153.44441406 -0.2684375 152.88882813 -0.921875 152.31640625 C-7.61307361 146.12561779 -11.09742393 138.50692106 -14 130 C-14.37125 129.071875 -14.7425 128.14375 -15.125 127.1875 C-16.40590151 122.5213588 -16.67439006 117.81559963 -17 113 C-14.36 113 -11.72 113 -9 113 C-9.061875 114.27875 -9.12375 115.5575 -9.1875 116.875 C-9.13288983 128.52516873 -3.61524938 139.5321852 4.3125 147.875 C16.76829329 159.5198151 30.91956685 160.54054907 47.22485352 160.50097656 C50.06042996 160.50000071 52.89332562 160.5418024 55.72851562 160.5859375 C65.87044475 160.6527227 74.60236605 160.69270947 82.58203125 153.59228516 C88.44941671 147.24088267 89.44568136 140.65859807 89.38818359 132.42797852 C89.39344055 131.49371033 89.39869751 130.55944214 89.40411377 129.59686279 C89.41726282 126.52403798 89.40859291 123.45173588 89.3984375 120.37890625 C89.40045987 118.23331097 89.40337266 116.08771635 89.40713501 113.94212341 C89.41155162 109.45085082 89.40514919 104.95975756 89.39111328 100.46850586 C89.37403229 94.72420993 89.38386012 88.98033488 89.40183067 83.23605442 C89.41269517 78.80670528 89.40920974 74.37745515 89.4014473 69.94810295 C89.39945213 67.8306975 89.40188045 65.71328294 89.40888596 63.59588814 C89.41654309 60.63082356 89.40483596 57.66643083 89.38818359 54.70141602 C89.39729263 53.40052284 89.39729263 53.40052284 89.40658569 52.073349 C89.33996514 45.63883461 88.25386443 40.15206287 84.421875 34.79296875 C77.24890559 27.904907 70.21668708 25.84772436 60.30859375 25.796875 C59.44871353 25.79117493 58.58883331 25.78547485 57.70289612 25.77960205 C55.87966134 25.77015337 54.05640949 25.76361859 52.2331543 25.75976562 C49.47217987 25.75012114 46.71196967 25.71912256 43.95117188 25.6875 C27.87575802 25.58922937 15.78772737 28.33259915 3.5234375 39.4453125 C-4.74808004 47.8865022 -9.08823425 59.3158434 -9.125 71.0625 C-9.08375 72.361875 -9.0425 73.66125 -9 75 C-11.64 75 -14.28 75 -17 75 C-16.67817205 59.28894446 -11.43898584 44.93654891 -0.8125 33.25 C5.02984054 27.75210584 12.52968575 23.80478832 20 21 C10.68638719 10.02324205 -4.12409747 5.50123516 -18 4 C-46.25145414 2.55391117 -70.83448735 8.35360994 -90.6875 29.6875 Z " fill="#759E48" transform="translate(383,42)"/>
<path d="M0 0 C8.47124116 0.05591578 14.53228325 3.10766497 20.6875 8.8125 C23.7348222 14.37717532 24.63123961 20.10950485 24.125 26.4375 C23.465 27.0975 22.805 27.7575 22.125 28.4375 C19.5 28.0625 19.5 28.0625 17.125 27.4375 C16.95484375 26.61765625 16.7846875 25.7978125 16.609375 24.953125 C16.36703125 23.87546875 16.1246875 22.7978125 15.875 21.6875 C15.64296875 20.62015625 15.4109375 19.5528125 15.171875 18.453125 C13.76316896 14.39521059 11.71420512 12.32558522 8 10.25 C4.44950091 9.24659808 1.00732862 9.00165764 -2.66796875 8.78125 C-4.875 8.4375 -4.875 8.4375 -6.875 6.4375 C-7.0625 3.875 -7.0625 3.875 -6.875 1.4375 C-5.05794088 -0.37955912 -2.45654118 0.0953716 0 0 Z " fill="#759E47" transform="translate(440.875,75.5625)"/>
<path d="M0 0 C3.15441888 1.82624251 3.82861833 2.48585498 5 6 C5.36366223 9.92755204 5.33869517 12.32260965 3.5625 15.875 C0.03273399 18.80212303 -3.45475654 19.32645395 -8 19 C-8.99 18.34 -9.98 17.68 -11 17 C-11 16.34 -11 15.68 -11 15 C-11.66 15 -12.32 15 -13 15 C-14.64154669 11.71690662 -14.78740299 8.52053736 -14 5 C-10.26644513 -0.37321695 -6.35653781 -2.03888949 0 0 Z " fill="#759E48" transform="translate(317,106)"/>
<path d="M0 0 C2.625 0.375 2.625 0.375 5 1 C5 3.64 5 6.28 5 9 C5.99 8.67 6.98 8.34 8 8 C9.18414294 11.55242882 8.69535532 12.69830562 7.5625 16.1875 C7.27503906 17.08855469 6.98757813 17.98960937 6.69140625 18.91796875 C6.46324219 19.60503906 6.23507812 20.29210937 6 21 C0.55263158 22.33157895 0.55263158 22.33157895 -1.875 20.875 C-3.32233508 18.46277487 -3.22417836 16.7648665 -3 14 C-2.01 14 -1.02 14 0 14 C-0.16757812 13.15695312 -0.33515625 12.31390625 -0.5078125 11.4453125 C-0.71148437 10.34960938 -0.91515625 9.25390625 -1.125 8.125 C-1.33382813 7.03445313 -1.54265625 5.94390625 -1.7578125 4.8203125 C-1.83773438 3.88960938 -1.91765625 2.95890625 -2 2 C-1.34 1.34 -0.68 0.68 0 0 Z " fill="#79A14D" transform="translate(456,256)"/>
<path d="M0 0 C0.84546387 0.32887207 1.69092773 0.65774414 2.56201172 0.99658203 C6.27074391 2.07901985 9.15560066 2.17004177 13.0078125 2.0546875 C14.98201172 2.01794922 14.98201172 2.01794922 16.99609375 1.98046875 C19.06788836 1.93072992 21.13912049 1.87454706 23.21044922 1.80810547 C25.22578459 1.74764065 27.24185082 1.71331983 29.2578125 1.6796875 C30.4555127 1.64601074 31.65321289 1.61233398 32.88720703 1.57763672 C36.59105838 2.08019851 37.7099068 3.12764369 40 6 C35.42848262 6.04971951 30.85712532 6.08586976 26.28540039 6.10986328 C24.73263809 6.11987381 23.17989442 6.13348634 21.62719727 6.15087891 C19.38553245 6.17534652 17.14411851 6.18653268 14.90234375 6.1953125 C14.21663803 6.20563507 13.53093231 6.21595764 12.82444763 6.22659302 C8.14702921 6.22766334 4.3951597 5.44423099 0 4 C0 2.68 0 1.36 0 0 Z " fill="#DEDEDE" transform="translate(413,46)"/>
<path d="M0 0 C0.33 0 0.66 0 1 0 C1 28.38 1 56.76 1 86 C0.34 85.67 -0.32 85.34 -1 85 C-1 62.23 -1 39.46 -1 16 C-1.33 16 -1.66 16 -2 16 C-2 12.7 -2 9.4 -2 6 C-1.67 6 -1.34 6 -1 6 C-0.67 4.02 -0.34 2.04 0 0 Z " fill="#C9C9C9" transform="translate(255,253)"/>
<path d="M0 0 C1.98 0 3.96 0 6 0 C5 2 5 2 3.328125 2.74609375 C2.64234375 2.97425781 1.9565625 3.20242187 1.25 3.4375 C-1.17683452 4.2950387 -3.16205854 5.09808807 -5.375 6.4375 C-7.91192438 7.94757404 -10.30361864 8.90644361 -13.0625 9.9375 C-16.89280554 11.41157004 -19.29040547 12.83880638 -22 16 C-22.66 16 -23.32 16 -24 16 C-24 14.68 -24 13.36 -24 12 C-22.39967863 11.15930585 -20.79458829 10.32768495 -19.1875 9.5 C-18.29417969 9.0359375 -17.40085937 8.571875 -16.48046875 8.09375 C-14 7 -14 7 -11 7 C-10.67 6.01 -10.34 5.02 -10 4 C-6.625 2.25 -6.625 2.25 -3 1 C-2.01 1.33 -1.02 1.66 0 2 C0 1.34 0 0.68 0 0 Z " fill="#D8D8D8" transform="translate(317,33)"/>
<path d="M0 0 C1.67542976 0.28604898 3.34385343 0.61781233 5 1 C5.21278058 5.46839215 4.59138085 8.82262526 3 13 C2.34 13 1.68 13 1 13 C0.4654744 11.75579353 -0.05208611 10.50429064 -0.5625 9.25 C-0.85253906 8.55390625 -1.14257812 7.8578125 -1.44140625 7.140625 C-2.08403102 4.67797901 -1.86039859 3.36996018 -1 1 C-0.67 0.67 -0.34 0.34 0 0 Z " fill="#F2F5ED" transform="translate(456,256)"/>
<path d="M0 0 C0 0.99 0 1.98 0 3 C-1.11375 3.226875 -2.2275 3.45375 -3.375 3.6875 C-7.16038373 4.60623658 -7.16038373 4.60623658 -8.4375 7.625 C-8.7159375 8.800625 -8.7159375 8.800625 -9 10 C-9.66 10 -10.32 10 -11 10 C-11.33 11.98 -11.66 13.96 -12 16 C-12.33 16 -12.66 16 -13 16 C-13 13.69 -13 11.38 -13 9 C-12.01 8.67 -11.02 8.34 -10 8 C-9.86722656 7.36578125 -9.73445312 6.7315625 -9.59765625 6.078125 C-9 4 -9 4 -6.93359375 2.734375 C-6.10988281 2.40953125 -5.28617188 2.0846875 -4.4375 1.75 C-3.61121094 1.41484375 -2.78492188 1.0796875 -1.93359375 0.734375 C-1.29550781 0.49203125 -0.65742188 0.2496875 0 0 Z " fill="#DBDBDB" transform="translate(189,158)"/>
<path d="M0 0 C0.33 0.66 0.66 1.32 1 2 C0.22265625 3.7265625 0.22265625 3.7265625 -0.9375 5.625 C-1.618125 6.73875 -2.29875 7.8525 -3 9 C-3.66 9 -4.32 9 -5 9 C-5.268125 9.969375 -5.53625 10.93875 -5.8125 11.9375 C-6.204375 12.948125 -6.59625 13.95875 -7 15 C-7.99 15.33 -8.98 15.66 -10 16 C-9.34 14.02 -8.68 12.04 -8 10 C-7.34 10 -6.68 10 -6 10 C-5.7525 9.46375 -5.505 8.9275 -5.25 8.375 C-3.70303025 5.43575748 -1.86985631 2.74245592 0 0 Z " fill="#DDDDDD" transform="translate(272,70)"/>
<path d="M0 0 C0.66 0.33 1.32 0.66 2 1 C0.61811547 4.21043882 -0.92421903 6.04936365 -3.625 8.25 C-4.25664062 8.77078125 -4.88828125 9.2915625 -5.5390625 9.828125 C-6.02117187 10.21484375 -6.50328125 10.6015625 -7 11 C-7 7 -7 7 -5.46875 5.078125 C-4.8190625 4.47484375 -4.169375 3.8715625 -3.5 3.25 C-2.8503125 2.63640625 -2.200625 2.0228125 -1.53125 1.390625 C-1.0259375 0.93171875 -0.520625 0.4728125 0 0 Z " fill="#7DA453" transform="translate(386,71)"/>
<path d="M0 0 C3.125 0.375 3.125 0.375 6 1 C6 1.66 6 2.32 6 3 C7.32 3.66 8.64 4.32 10 5 C6.35839192 6.21386936 5.66834531 5.6674695 2.3125 4.0625 C1.10013672 3.49208984 1.10013672 3.49208984 -0.13671875 2.91015625 C-0.75160156 2.60980469 -1.36648438 2.30945312 -2 2 C-1.34 1.34 -0.68 0.68 0 0 Z " fill="#DEDEDE" transform="translate(462,52)"/>
<path d="M0 0 C1.98 0 3.96 0 6 0 C5 2 5 2 3.328125 2.74609375 C2.64234375 2.97425781 1.9565625 3.20242187 1.25 3.4375 C-1.41077833 4.36734189 -3.43796021 5.26658447 -5.875 6.75 C-6.57625 7.1625 -7.2775 7.575 -8 8 C-8.66 7.67 -9.32 7.34 -10 7 C-6.25 4 -6.25 4 -4 4 C-3.67 3.01 -3.34 2.02 -3 1 C-2.01 1.33 -1.02 1.66 0 2 C0 1.34 0 0.68 0 0 Z " fill="#E0E0E0" transform="translate(317,33)"/>
<path d="M0 0 C5.94 1.485 5.94 1.485 12 3 C12 3.33 12 3.66 12 4 C8.37 4.33 4.74 4.66 1 5 C0.67 3.35 0.34 1.7 0 0 Z " fill="#E0E0E0" transform="translate(413,46)"/>
<path d="M0 0 C0.66 0.33 1.32 0.66 2 1 C0.88200014 2.33920838 -0.24461897 3.67122556 -1.375 5 C-2.00148438 5.7425 -2.62796875 6.485 -3.2734375 7.25 C-4.12808594 8.11625 -4.12808594 8.11625 -5 9 C-5.66 9 -6.32 9 -7 9 C-6.82374165 6.62051228 -6.30280227 5.29774151 -4.59765625 3.62109375 C-3.09350908 2.37884514 -1.54870149 1.18623944 0 0 Z " fill="#7BA24F" transform="translate(339,289)"/>
<path d="M0 0 C0.99 0.33 1.98 0.66 3 1 C2.04882866 2.1725131 1.08882991 3.33787015 0.125 4.5 C-0.40867188 5.1496875 -0.94234375 5.799375 -1.4921875 6.46875 C-1.98976562 6.9740625 -2.48734375 7.479375 -3 8 C-3.66 8 -4.32 8 -5 8 C-3.8141763 4.62496331 -2.72426311 2.35277269 0 0 Z " fill="#7AA14E" transform="translate(237,127)"/>
<path d="M0 0 C0 0.66 0 1.32 0 2 C-1.58086048 2.36504603 -3.16483907 2.71660506 -4.75 3.0625 C-5.63171875 3.25972656 -6.5134375 3.45695312 -7.421875 3.66015625 C-9.98679028 3.99825872 -11.57091639 3.81158635 -14 3 C-9.43672206 -0.53286034 -5.50366792 -0.32374517 0 0 Z " fill="#DFDFDF" transform="translate(252,112)"/>
<path d="M0 0 C0 0.66 0 1.32 0 2 C-0.66 2 -1.32 2 -2 2 C-2 2.66 -2 3.32 -2 4 C-2.66 4 -3.32 4 -4 4 C-4.33 5.32 -4.66 6.64 -5 8 C-5.99 8 -6.98 8 -8 8 C-8 8.66 -8 9.32 -8 10 C-8.66 9.67 -9.32 9.34 -10 9 C-7.90713868 5.03457855 -4.97813191 0 0 0 Z " fill="#DBDBDB" transform="translate(282,59)"/>
<path d="M0 0 C0.66 1.32 1.32 2.64 2 4 C1.67 4.33 1.34 4.66 1 5 C0.76321284 7.69235776 0.57801975 10.36498156 0.4375 13.0625 C0.39431641 13.82111328 0.35113281 14.57972656 0.30664062 15.36132812 C0.20026367 17.24065438 0.09960066 19.12030244 0 21 C-0.33 21 -0.66 21 -1 21 C-1.0269501 18.06243881 -1.04681474 15.12512445 -1.0625 12.1875 C-1.07087891 11.35412109 -1.07925781 10.52074219 -1.08789062 9.66210938 C-1.09111328 8.85966797 -1.09433594 8.05722656 -1.09765625 7.23046875 C-1.10289307 6.49207764 -1.10812988 5.75368652 -1.11352539 4.99291992 C-1 3 -1 3 0 0 Z " fill="#C6C6C6" transform="translate(219,138)"/>
<path d="M0 0 C3.6875 0.3125 3.6875 0.3125 7 1 C7 1.66 7 2.32 7 3 C3.7 3 0.4 3 -3 3 C-2.01 2.01 -1.02 1.02 0 0 Z " fill="#7FA555" transform="translate(310,105)"/>
<path d="M0 0 C3.40312738 1.05875074 6.01353231 2.00902154 9 4 C9 4.66 9 5.32 9 6 C6.69 5.67 4.38 5.34 2 5 C2 4.34 2 3.68 2 3 C1.01 2.67 0.02 2.34 -1 2 C-0.67 1.34 -0.34 0.68 0 0 Z " fill="#E1E1E1" transform="translate(404,40)"/>
<path d="M0 0 C0.33 0.66 0.66 1.32 1 2 C-4.94 2.495 -4.94 2.495 -11 3 C-7.63114177 -0.36885823 -4.54278442 -0.10095076 0 0 Z " fill="#D9D9D9" transform="translate(317,366)"/>
<path d="M0 0 C0.66 0 1.32 0 2 0 C2.99 3.63 3.98 7.26 5 11 C4.34 11 3.68 11 3 11 C0 4.5 0 4.5 0 0 Z " fill="#DCDCDC" transform="translate(176,212)"/>
<path d="M0 0 C8.57142857 -0.14285714 8.57142857 -0.14285714 12 1 C11.67 1.99 11.34 2.98 11 4 C7.1936543 3.32829194 3.64793184 2.27253436 0 1 C0 0.67 0 0.34 0 0 Z " fill="#DBDBDB" transform="translate(373,30)"/>
<path d="M0 0 C1.53508028 2.43338652 2.03088304 3.67124507 1.7578125 6.578125 C1.44457031 7.90070313 1.44457031 7.90070313 1.125 9.25 C0.92132813 10.14203125 0.71765625 11.0340625 0.5078125 11.953125 C0.34023438 12.62859375 0.17265625 13.3040625 0 14 C-0.33 14 -0.66 14 -1 14 C-1.18451025 4.58997722 -1.18451025 4.58997722 0 0 Z " fill="#8AAE64" transform="translate(266,106)"/>
<path d="M0 0 C0.33 0.99 0.66 1.98 1 3 C0.34 2.67 -0.32 2.34 -1 2 C-0.67 1.34 -0.34 0.68 0 0 Z M-3 3 C-2.34 3 -1.68 3 -1 3 C-1.54723683 6.37462715 -2.0549 8.08235 -4 11 C-4.04241723 8.66705225 -4.04092937 6.33297433 -4 4 C-3.67 3.67 -3.34 3.34 -3 3 Z " fill="#D7D7D7" transform="translate(224,126)"/>
<path d="M0 0 C0.33 1.32 0.66 2.64 1 4 C1.99 4 2.98 4 4 4 C4 4.66 4 5.32 4 6 C5.98 6 7.96 6 10 6 C10 6.33 10 6.66 10 7 C3.9453125 7.1953125 3.9453125 7.1953125 2 7 C0 5 0 5 -0.125 2.375 C-0.08375 1.59125 -0.0425 0.8075 0 0 Z " fill="#9BB979" transform="translate(434,77)"/>
<path d="M0 0 C0.33 0.66 0.66 1.32 1 2 C1.99 1.67 2.98 1.34 4 1 C4.33 1.99 4.66 2.98 5 4 C4.01 5.485 4.01 5.485 3 7 C2.67 6.01 2.34 5.02 2 4 C1.34 3.67 0.68 3.34 0 3 C-0.33 3.99 -0.66 4.98 -1 6 C-0.67 4.02 -0.34 2.04 0 0 Z " fill="#84A95B" transform="translate(460,263)"/>
<path d="M0 0 C0.99 0.66 1.98 1.32 3 2 C2.34 2 1.68 2 1 2 C1 2.66 1 3.32 1 4 C0.01 4 -0.98 4 -2 4 C-2 4.66 -2 5.32 -2 6 C-2.99 6.33 -3.98 6.66 -5 7 C-4.6875 5.0625 -4.6875 5.0625 -4 3 C-3.01 2.67 -2.02 2.34 -1 2 C-0.67 1.34 -0.34 0.68 0 0 Z " fill="#DBDBDB" transform="translate(235,115)"/>
<path d="M0 0 C0.66 0.33 1.32 0.66 2 1 C1.34 3.64 0.68 6.28 0 9 C-0.66 9 -1.32 9 -2 9 C-1.34 6.03 -0.68 3.06 0 0 Z " fill="#E4E5E4" transform="translate(260,93)"/>
<path d="M0 0 C2.475 0.495 2.475 0.495 5 1 C5 2.98 5 4.96 5 7 C4.34 7 3.68 7 3 7 C3 5.68 3 4.36 3 3 C2.01 2.67 1.02 2.34 0 2 C0 1.34 0 0.68 0 0 Z " fill="#D7D7D7" transform="translate(480,67)"/>
<path d="M0 0 C0.33 0 0.66 0 1 0 C1 2.31 1 4.62 1 7 C-1 4 -1 4 -0.625 1.8125 C-0.41875 1.214375 -0.2125 0.61625 0 0 Z " fill="#E6E6E6" transform="translate(253,279)"/>
<path d="M0 0 C0.33 0.99 0.66 1.98 1 3 C0.34 3 -0.32 3 -1 3 C-0.67 2.01 -0.34 1.02 0 0 Z " fill="#E6E6E6" transform="translate(216,155)"/>
<path d="M0 0 C3 1 3 1 3 1 Z " fill="#E6E6E6" transform="translate(403,370)"/>
<path d="M0 0 C3 1 3 1 3 1 Z " fill="#E6E6E6" transform="translate(300,370)"/>
<path d="M0 0 C2 1 2 1 2 1 Z " fill="#E6E6E6" transform="translate(400,370)"/>
<path d="M0 0 C2 1 2 1 2 1 Z " fill="#E6E6E6" transform="translate(306,370)"/>
<path d="M0 0 C2 1 2 1 2 1 Z " fill="#E6E6E6" transform="translate(295,370)"/>
<path d="" fill="#E6E6E6" transform="translate(0,0)"/>
<path d="M0 0 C2 1 2 1 2 1 Z " fill="#E6E6E6" transform="translate(397,36)"/>
<path d="M0 0 C2 1 2 1 2 1 Z " fill="#E6E6E6" transform="translate(348,26)"/>
<path d="" fill="#E6E6E6" transform="translate(0,0)"/>
<path d="" fill="#E6E6E6" transform="translate(0,0)"/>
<path d="" fill="#E6E6E6" transform="translate(0,0)"/>
<path d="" fill="#E6E6E6" transform="translate(0,0)"/>
<path d="" fill="#E6E6E6" transform="translate(0,0)"/>
<path d="" fill="#E6E6E6" transform="translate(0,0)"/>
<path d="" fill="#E6E6E6" transform="translate(0,0)"/>
<path d="" fill="#E6E6E6" transform="translate(0,0)"/>
<path d="" fill="#E6E6E6" transform="translate(0,0)"/>
<path d="" fill="#E6E6E6" transform="translate(0,0)"/>
<path d="" fill="#E6E6E6" transform="translate(0,0)"/>
<path d="" fill="#E6E6E6" transform="translate(0,0)"/>
<path d="" fill="#E6E6E6" transform="translate(0,0)"/>
<path d="" fill="#E6E6E6" transform="translate(0,0)"/>
<path d="" fill="#E6E6E6" transform="translate(0,0)"/>
<path d="" fill="#E6E6E6" transform="translate(0,0)"/>
<path d="" fill="#E6E6E6" transform="translate(0,0)"/>
<path d="" fill="#E6E6E6" transform="translate(0,0)"/>
</svg>
