<svg xmlns="http://www.w3.org/2000/svg" viewBox="0 0 120 90" width="120" height="90">
  <style>
    .text {
      fill: #24292f;
      font-family: -apple-system, BlinkMacSystemFont, "Segoe UI", Helvetica, Arial, sans-serif;
      font-size: 12px;
      font-weight: 600;
    }
    .icon-fill {
      fill: #000000;
    }
    @media (prefers-color-scheme: dark) {
      .text {
        fill: #c9d1d9;
      }
      .icon-fill {
        fill: #ffffff;
      }
    }
  </style>
  
  <!-- Icon container -->
  <svg x="40" y="8" width="40" height="40" viewBox="0 0 128 128">
    <defs><linearGradient id="a" x1="53.974" x2="94.163" y1="54.974" y2="71.829" gradientTransform="translate(29.387 60.096) scale(1.1436)" gradientUnits="userSpaceOnUse"><stop offset="0" stop-color="#249361"/><stop offset="1" stop-color="#3ecf8e"/></linearGradient><linearGradient id="b" x1="36.156" x2="54.484" y1="30.578" y2="65.081" gradientTransform="translate(29.387 60.096) scale(1.1436)" gradientUnits="userSpaceOnUse"><stop offset="0"/><stop offset="1" stop-opacity="0"/></linearGradient></defs><path fill="url(#a)" d="M102.24 186.21c-3.267 4.117-9.904 1.862-9.977-3.397l-1.156-76.906h51.715c9.365 0 14.587 10.817 8.763 18.149z" transform="translate(-27.722 -60.338)"/><path fill="url(#b)" fill-opacity=".2" d="M102.24 186.21c-3.267 4.117-9.904 1.862-9.977-3.397l-1.156-76.906h51.715c9.365 0 14.587 10.817 8.763 18.149z" transform="translate(-27.722 -60.338)"/><path fill="#3ecf8e" d="M53.484 2.128c3.267-4.117 9.905-1.862 9.977 3.396l.508 76.907H12.902c-9.365 0-14.587-10.817-8.764-18.149z"/>
  </svg>
  
  <!-- Label -->
  <text class="text" x="60" y="70" text-anchor="middle">Supabase</text>
</svg>